<svg xmlns="http://www.w3.org/2000/svg" viewBox="0 0 64 80" x="0px" y="0px"><title>a</title><g data-name="01 Time Travel"><path d="M32,51A19,19,0,1,0,13,32,19.021,19.021,0,0,0,32,51Zm0-36A17,17,0,1,1,15,32,17.019,17.019,0,0,1,32,15Z"/><path d="M32,46.5A14.5,14.5,0,1,0,17.5,32,14.517,14.517,0,0,0,32,46.5Zm0-27A12.5,12.5,0,1,1,19.5,32,12.514,12.514,0,0,1,32,19.5Z"/><path d="M24.95,33h4.443a2.779,2.779,0,0,0,3.746,1.553l5.354,5.354a1,1,0,1,0,1.414-1.414l-5.354-5.354A2.779,2.779,0,0,0,33,29.393V22.1a1,1,0,0,0-2,0v7.293A2.8,2.8,0,0,0,29.393,31H24.95a1,1,0,0,0,0,2Zm6.25-1a.8.8,0,1,1,.8.8A.8.8,0,0,1,31.2,32Z"/><path d="M63.9,31.515A1,1,0,0,0,63.023,31h-2.13A29.423,29.423,0,0,0,3.521,22.851a1,1,0,0,0,1.9.621A27.423,27.423,0,0,1,58.893,31H56.984a1,1,0,0,0-.848,1.53l3.02,4.831a1,1,0,0,0,1.7,0l3.019-4.831A1,1,0,0,0,63.9,31.515ZM60,34.944,58.789,33h2.43Z"/><path d="M60.219,39.612a1,1,0,0,0-1.254.653A27.875,27.875,0,0,1,32.509,59.427,27.454,27.454,0,0,1,5.1,32.873H7A1,1,0,0,0,7.738,31.2l-2.91-4.684a1,1,0,0,0-1.7,0l-3,4.831a1,1,0,0,0,.85,1.528H3.1A29.456,29.456,0,0,0,32.509,61.427a29.891,29.891,0,0,0,28.363-20.56A1,1,0,0,0,60.219,39.612ZM3.979,28.936l1.2,1.937H2.775Z"/><path d="M32,56A23.9,23.9,0,0,0,54.292,40.877a1,1,0,0,0-1.857-.743,21.984,21.984,0,0,1-39.194,3.338,1,1,0,0,0-1.7,1.046A23.863,23.863,0,0,0,32,56Z"/><path d="M32,8A23.9,23.9,0,0,0,9.708,23.123a1,1,0,0,0,.558,1.3.986.986,0,0,0,.37.072,1,1,0,0,0,.929-.629,21.983,21.983,0,0,1,38.894-3.813,1,1,0,1,0,1.678-1.089A23.942,23.942,0,0,0,32,8Z"/><path d="M9.02,37.98a1,1,0,0,0,1.7.71,1,1,0,0,0,.3-.71.976.976,0,0,0-.3-.7,1.024,1.024,0,0,0-1.41,0A.967.967,0,0,0,9.02,37.98Z"/><path d="M54.97,25.03a1,1,0,1,0-1.71.71,1.033,1.033,0,0,0,.71.29.99.99,0,0,0,1-1Z"/><path d="M12,40.96a.99.99,0,1,0-.29.71A1.052,1.052,0,0,0,12,40.96Z"/><path d="M52.27,21.31a1.052,1.052,0,0,0-.29.71,1.033,1.033,0,0,0,.29.71,1.052,1.052,0,0,0,.71.29,1.033,1.033,0,0,0,.71-.29,1,1,0,1,0-1.42-1.42Z"/></g><text x="0" y="84" fill="#000000" font-size="5px" font-weight="bold" font-family="'Helvetica Neue', Helvetica, Arial-Unicode, Arial, Sans-serif">from the Noun Project</text></svg>